<svg width="562" height="573" viewBox="0 0 562 573" fill="none" xmlns="http://www.w3.org/2000/svg">
<mask id="mask0_101_2" style="mask-type:alpha" maskUnits="userSpaceOnUse" x="149" y="25" width="413" height="413">
<circle cx="355.5" cy="231.5" r="206.5" fill="white"/>
</mask>
<g mask="url(#mask0_101_2)">
<circle cx="355.5" cy="231.5" r="205.5" fill="#124F48"/>
<path d="M140.039 -59.2407C164.818 -26.4055 230.694 36.6805 295.968 26.3431C377.561 13.4213 428.512 -12.8641 459.006 46.8392C489.499 106.543 498.835 146.405 549.291 141.244C599.748 136.084 631.685 200.039 626.532 219.271" stroke="white" stroke-width="4"/>
<path d="M116.842 9.6992C141.62 42.5344 207.496 105.62 272.771 95.283C354.364 82.3612 405.315 56.0757 435.808 115.779C466.302 175.482 475.638 215.345 526.094 210.184C576.551 205.024 608.488 268.979 603.334 288.211" stroke="#FF7715" stroke-width="4"/>
<path d="M95.3529 89.8966C120.087 122.898 185.886 186.272 251.207 175.758C332.859 162.616 383.879 136.077 414.284 196.107C444.69 256.138 453.962 296.238 504.451 290.958C554.939 285.679 586.782 349.986 581.594 369.349" stroke="white" stroke-width="4"/>
<path d="M-49.709 157.785C-24.9749 190.786 40.8237 254.161 106.145 243.647C187.797 230.504 238.817 203.965 269.222 263.996C299.628 324.026 308.901 364.126 359.389 358.846C409.877 353.567 441.72 417.874 436.532 437.237" stroke="#71BBFF" stroke-width="4"/>
<path d="M-65.9609 226.759C-41.1823 259.594 24.6935 322.68 89.9679 312.343C171.561 299.421 222.512 273.136 253.006 332.839C283.499 392.543 292.835 432.405 343.291 427.244C393.748 422.084 425.685 486.039 420.532 505.271" stroke="#FFCA45" stroke-width="4"/>
</g>
<circle cx="158" cy="100" r="10" fill="#FF823B"/>
<circle cx="159" cy="393" r="10" fill="#FFCA45"/>
<circle cx="10" cy="563" r="10" fill="#71BBFF"/>
<circle cx="534" cy="10" r="10" fill="#124F48"/>
</svg>
