<svg width="509" height="509" viewBox="0 0 509 509" fill="none" xmlns="http://www.w3.org/2000/svg">
<mask id="mask0_48_193" style="mask-type:alpha" maskUnits="userSpaceOnUse" x="0" y="0" width="509" height="509">
<circle cx="254.5" cy="254.5" r="254.5" fill="white"/>
</mask>
<g mask="url(#mask0_48_193)">
<circle cx="254.5" cy="254.5" r="253.268" fill="#124F48"/>
<path d="M-39.6333 -18.8571C-9.09499 21.6105 72.0934 99.3605 152.541 86.6202C253.099 70.6949 315.894 38.2995 353.476 111.881C391.057 185.462 402.563 234.59 464.748 228.23C526.933 221.87 566.294 300.691 559.942 324.393" stroke="#FF7715" stroke-width="4"/>
<path d="M-66.1171 79.9816C-35.6337 120.654 45.4595 198.76 125.965 185.802C226.597 169.604 289.475 136.896 326.949 210.88C364.422 284.865 375.85 334.286 438.074 327.779C500.298 321.273 539.542 400.527 533.148 424.391" stroke="#FF823B" stroke-width="4"/>
<path d="M-113.969 172.906C-83.4852 213.578 -2.3921 291.684 78.1133 278.726C178.745 262.528 241.624 229.82 279.097 303.805C316.571 377.789 327.998 427.21 390.222 420.703C452.446 414.197 491.691 493.451 485.297 517.315" stroke="#71BBFF" stroke-width="4"/>
<path d="M-133.998 257.913C-103.46 298.38 -22.2716 376.13 58.1755 363.39C158.734 347.465 221.529 315.069 259.111 388.65C296.692 462.232 308.198 511.36 370.383 505C432.568 498.639 471.929 577.46 465.577 601.163" stroke="#FFCA45" stroke-width="4"/>
</g>
</svg>
