<svg width="23" height="22" viewBox="0 0 23 22" fill="none" xmlns="http://www.w3.org/2000/svg">
<path d="M20.2984 5.32269H16.9984V3.11217C16.9984 1.89306 16.0117 0.901642 14.7984 0.901642H8.19841C6.98511 0.901642 5.99841 1.89306 5.99841 3.11217V5.32269H2.69841C1.48511 5.32269 0.498413 6.31412 0.498413 7.53322V10.849H22.4984V7.53322C22.4984 6.31412 21.5117 5.32269 20.2984 5.32269ZM8.19841 3.11217H14.7984V5.32269H8.19841V3.11217ZM13.6984 14.1648H9.29841V11.9543H0.498413V19.6911C0.498413 20.9102 1.48511 21.9016 2.69841 21.9016H20.2984C21.5117 21.9016 22.4984 20.9102 22.4984 19.6911V11.9543H13.6984V14.1648Z" fill="white"/>
</svg>
