<svg width="104" height="104" viewBox="0 0 104 104" fill="none" xmlns="http://www.w3.org/2000/svg">
<rect width="104" height="104" rx="14" fill="#FFF6D5"/>
<rect x="14.8669" y="15" width="74" height="74" rx="14" fill="#FFC90C"/>
<path d="M60.2984 46.3227H56.9984V44.1122C56.9984 42.8931 56.0117 41.9016 54.7984 41.9016H48.1984C46.9851 41.9016 45.9984 42.8931 45.9984 44.1122V46.3227H42.6984C41.4851 46.3227 40.4984 47.3141 40.4984 48.5332V51.849H62.4984V48.5332C62.4984 47.3141 61.5117 46.3227 60.2984 46.3227ZM48.1984 44.1122H54.7984V46.3227H48.1984V44.1122ZM53.6984 55.1648H49.2984V52.9543H40.4984V60.6911C40.4984 61.9102 41.4851 62.9016 42.6984 62.9016H60.2984C61.5117 62.9016 62.4984 61.9102 62.4984 60.6911V52.9543H53.6984V55.1648Z" fill="white"/>
</svg>
