<svg width="104" height="104" viewBox="0 0 104 104" fill="none" xmlns="http://www.w3.org/2000/svg">
<rect width="104" height="104" rx="14" fill="#DBEEFF"/>
<rect x="15" y="15" width="74" height="74" rx="14" fill="#0085FF"/>
<path d="M60 46C60 43.832 56.337 42 52 42C47.663 42 44 43.832 44 46V48C44 50.168 47.663 52 52 52C56.337 52 60 50.168 60 48V46ZM52 59C47.663 59 44 57.168 44 55V58C44 60.168 47.663 62 52 62C56.337 62 60 60.168 60 58V55C60 57.168 56.337 59 52 59Z" fill="white"/>
<path d="M60 50C60 52.168 56.337 54 52 54C47.663 54 44 52.168 44 50V53C44 55.168 47.663 57 52 57C56.337 57 60 55.168 60 53V50Z" fill="white"/>
</svg>
