<svg width="104" height="104" viewBox="0 0 104 104" fill="none" xmlns="http://www.w3.org/2000/svg">
<rect width="104" height="104" rx="14" fill="#FFEFE6"/>
<rect x="16" y="15" width="74" height="74" rx="14" fill="#FF7527"/>
<path d="M46.0838 57.7237H42.6102C41.9698 57.7237 41.4523 57.205 41.4523 56.5658V47.3027C41.4523 46.6635 41.9698 46.1448 42.6102 46.1448H46.0838C46.7242 46.1448 47.2417 46.6635 47.2417 47.3027V56.5658C47.2417 57.205 46.7242 57.7237 46.0838 57.7237ZM54.1891 57.7237H50.7154C50.0751 57.7237 49.5575 57.205 49.5575 56.5658V36.8816C49.5575 36.2425 50.0751 35.7237 50.7154 35.7237H54.1891C54.8294 35.7237 55.347 36.2425 55.347 36.8816V56.5658C55.347 57.205 54.8294 57.7237 54.1891 57.7237ZM62.2944 57.7237H58.8207C58.1804 57.7237 57.6628 57.205 57.6628 56.5658V43.829C57.6628 43.1898 58.1804 42.6711 58.8207 42.6711H62.2944C62.9347 42.6711 63.4523 43.1898 63.4523 43.829V56.5658C63.4523 57.205 62.9347 57.7237 62.2944 57.7237Z" fill="white"/>
</svg>
