<svg width="23" height="23" viewBox="0 0 23 23" fill="none" xmlns="http://www.w3.org/2000/svg">
<path d="M5.08385 22.7237H1.61017C0.969849 22.7237 0.452271 22.205 0.452271 21.5658L0.452271 12.3027C0.452271 11.6635 0.969849 11.1448 1.61017 11.1448H5.08385C5.72416 11.1448 6.24174 11.6635 6.24174 12.3027V21.5658C6.24174 22.205 5.72416 22.7237 5.08385 22.7237ZM13.1891 22.7237H9.71543C9.07511 22.7237 8.55753 22.205 8.55753 21.5658L8.55753 1.88162C8.55753 1.24246 9.07511 0.723724 9.71543 0.723724L13.1891 0.723724C13.8294 0.723724 14.347 1.24246 14.347 1.88162L14.347 21.5658C14.347 22.205 13.8294 22.7237 13.1891 22.7237ZM21.2944 22.7237H17.8207C17.1804 22.7237 16.6628 22.205 16.6628 21.5658V8.82899C16.6628 8.18983 17.1804 7.67109 17.8207 7.67109H21.2944C21.9347 7.67109 22.4523 8.18983 22.4523 8.82899V21.5658C22.4523 22.205 21.9347 22.7237 21.2944 22.7237Z" fill="white"/>
</svg>
