<svg width="502" height="502" viewBox="0 0 502 502" fill="none" xmlns="http://www.w3.org/2000/svg">
<mask id="mask0_48_159" style="mask-type:alpha" maskUnits="userSpaceOnUse" x="0" y="0" width="502" height="502">
<circle cx="251" cy="251" r="251" fill="white"/>
</mask>
<g mask="url(#mask0_48_159)">
<circle cx="251" cy="251" r="249.784" fill="#124F48"/>
<path d="M-10.892 -102.394C19.2263 -62.4834 99.2982 14.1974 178.639 1.63232C277.815 -14.074 339.746 -46.0239 376.811 26.5453C413.875 99.1145 425.223 147.567 486.553 141.295C547.883 135.022 586.702 212.759 580.438 236.136" stroke="white" stroke-width="4"/>
<path d="M-39.0883 -18.5978C-8.96994 21.3132 71.1019 97.994 150.443 85.429C249.619 69.7226 311.55 37.7727 348.614 110.342C385.679 182.911 397.027 231.364 458.356 225.091C519.686 218.818 558.506 296.555 552.242 319.932" stroke="#FF7715" stroke-width="4"/>
<path d="M-65.2078 78.8815C-35.1436 118.995 44.8343 196.026 124.233 183.246C223.48 167.271 285.494 135.013 322.452 207.98C359.41 280.947 370.681 329.688 432.049 323.271C493.418 316.854 532.122 395.019 525.816 418.555" stroke="white" stroke-width="4"/>
<path d="M-241.53 161.4C-211.466 201.513 -131.488 278.544 -52.0896 265.765C47.1583 249.79 109.172 217.532 146.13 290.499C183.088 363.465 194.359 412.207 255.727 405.79C317.095 399.372 355.8 477.537 349.494 501.073" stroke="#FF823B" stroke-width="4"/>
<path d="M-261.284 245.237C-231.166 285.148 -151.094 361.829 -71.7533 349.264C27.4227 333.558 89.3538 301.608 126.418 374.177C163.483 446.746 174.831 495.199 236.161 488.926C297.49 482.653 336.31 560.391 330.046 583.767" stroke="#FFCA45" stroke-width="4"/>
</g>
</svg>
