<svg width="413" height="413" viewBox="0 0 413 413" fill="none" xmlns="http://www.w3.org/2000/svg">
<mask id="mask0_48_75" style="mask-type:alpha" maskUnits="userSpaceOnUse" x="0" y="0" width="413" height="413">
<circle cx="206.5" cy="206.5" r="206.5" fill="white"/>
</mask>
<g mask="url(#mask0_48_75)">
<circle cx="206.5" cy="206.5" r="205.5" fill="#124F48"/>
<path d="M-8.96092 -84.2407C15.8177 -51.4055 81.6935 11.6805 146.968 1.34308C228.561 -11.5787 279.512 -37.8641 310.006 21.8392C340.499 81.5426 349.835 121.405 400.291 116.244C450.748 111.084 482.685 175.039 477.532 194.271" stroke="white" stroke-width="4"/>
<path d="M-32.1582 -15.3008C-7.37956 17.5344 58.4963 80.6204 123.771 70.283C205.364 57.3612 256.315 31.0757 286.808 90.7791C317.302 150.482 326.638 190.345 377.094 185.184C427.551 180.024 459.488 243.979 454.334 263.211" stroke="#FF7715" stroke-width="4"/>
<path d="M-53.6471 64.8966C-28.913 97.8981 36.8855 161.272 102.207 150.758C183.859 137.616 234.879 111.077 265.284 171.107C295.69 231.138 304.962 271.238 355.451 265.958C405.939 260.679 437.782 324.986 432.594 344.349" stroke="white" stroke-width="4"/>
<path d="M-198.709 132.785C-173.975 165.786 -108.176 229.161 -42.8546 218.647C38.7975 205.504 89.8167 178.965 120.222 238.996C150.628 299.026 159.901 339.126 210.389 333.846C260.877 328.567 292.72 392.874 287.532 412.237" stroke="#71BBFF" stroke-width="4"/>
<path d="M-214.961 201.759C-190.182 234.594 -124.306 297.68 -59.0321 287.343C22.5609 274.421 73.5121 248.136 104.006 307.839C134.499 367.543 143.835 407.405 194.291 402.244C244.748 397.084 276.685 461.039 271.532 480.271" stroke="#FFCA45" stroke-width="4"/>
</g>
</svg>
